# xmcd CD database file
#
# Track frame offsets:
#	150
#	17845
#	43992
#	69622
#	110315
#	136457
#	162862
#	186492
#	213327
#	239675
#	262500
#
# Disc length: 3840 seconds
#
# Revision: 0
# Processed by: cddbd v1.5.1PL2 Copyright (c) Steve Scherf et al.
# Submitted via: CDex 1.51
#
DISCID=9e0efe0b
DTITLE=Eric Dolphy - Pionnier de la modenité
DYEAR=1900
DGENRE=Jazz
TTITLE0=far cry
TTITLE1=miss Ann
TTITLE2=warm canto
TTITLE3=to her ladyship
TTITLE4=green dolphin street
TTITLE5=the drive
TTITLE6=les
TTITLE7=curtsy
TTITLE8=yes indeed
TTITLE9=feathers
TTITLE10=it's magic
EXTD=
EXTT0=
EXTT1=
EXTT2=
EXTT3=
EXTT4=
EXTT5=
EXTT6=
EXTT7=
EXTT8=
EXTT9=
EXTT10=
PLAYORDER=
